<?xml version="1.0" standalone="no"?>
<!DOCTYPE svg PUBLIC "-//W3C//DTD SVG 20010904//EN"
 "http://www.w3.org/TR/2001/REC-SVG-20010904/DTD/svg10.dtd">
<svg version="1.0" xmlns="http://www.w3.org/2000/svg"
 width="1024.000000pt" height="1024.000000pt" viewBox="0 0 1024.000000 1024.000000"
 preserveAspectRatio="xMidYMid meet">
<metadata>
Created by potrace 1.11, written by Peter Selinger 2001-2013
</metadata>
<g transform="translate(0.000000,1024.000000) scale(0.100000,-0.100000)"
fill="#000000" stroke="none">
<path d="M0 5120 l0 -5120 5120 0 5120 0 0 5120 0 5120 -5120 0 -5120 0 0
-5120z m7810 3226 c104 -31 135 -54 307 -229 203 -205 224 -240 224 -368 0
-132 -25 -182 -157 -313 -120 -119 -247 -162 -363 -124 -99 32 -128 53 -297
222 -210 211 -229 242 -229 381 1 120 28 179 128 279 90 90 112 107 162 128
99 41 150 47 225 24z m-2445 -756 c112 -13 198 -26 280 -45 39 -9 84 -19 100
-22 17 -3 35 -9 40 -13 6 -4 26 -10 45 -14 58 -11 217 -74 350 -139 166 -81
362 -204 466 -292 7 -5 27 -21 46 -35 84 -63 322 -313 393 -414 11 -16 26 -34
33 -41 6 -8 12 -16 12 -20 0 -3 11 -18 25 -33 14 -15 25 -32 25 -39 0 -7 4
-13 9 -13 5 0 11 -8 15 -17 5 -18 26 -53 36 -63 17 -17 140 -260 140 -277 0
-7 5 -13 10 -13 6 0 10 -6 10 -14 0 -7 7 -27 15 -42 8 -16 15 -37 15 -46 0 -9
5 -20 10 -23 6 -3 10 -14 10 -24 0 -10 6 -31 14 -47 8 -16 20 -51 27 -79 6
-27 15 -59 20 -70 10 -27 30 -108 41 -170 40 -222 54 -446 39 -632 -11 -137
-16 -179 -40 -318 -11 -66 -31 -146 -42 -167 -5 -10 -9 -26 -9 -35 0 -16 -19
-77 -40 -128 -5 -11 -18 -47 -30 -80 -12 -33 -39 -98 -61 -144 -23 -46 -45
-93 -50 -105 -5 -12 -20 -39 -34 -61 -14 -22 -28 -47 -32 -55 -3 -8 -9 -17
-12 -20 -10 -9 -31 -44 -37 -62 -4 -10 -10 -18 -15 -18 -5 0 -9 -6 -9 -13 0
-7 -11 -24 -25 -39 -14 -15 -25 -30 -25 -33 0 -4 -6 -12 -12 -20 -7 -7 -22
-26 -33 -41 -79 -112 -269 -304 -410 -415 -55 -44 -109 -86 -120 -95 -11 -9
-30 -21 -42 -27 -13 -5 -23 -14 -23 -19 0 -4 -4 -8 -10 -8 -5 0 -45 -22 -88
-50 -43 -27 -84 -50 -90 -50 -7 0 -12 -4 -12 -10 0 -5 -6 -10 -12 -10 -7 0
-51 -19 -98 -41 -47 -23 -95 -46 -107 -50 -13 -5 -33 -13 -45 -18 -90 -35
-173 -62 -233 -77 -38 -9 -79 -20 -90 -24 -62 -24 -230 -48 -428 -61 -235 -16
-626 17 -732 60 -11 5 -54 16 -95 26 -41 10 -79 22 -84 26 -6 5 -18 9 -27 9
-9 0 -30 7 -45 15 -16 8 -37 15 -46 15 -9 0 -20 5 -23 10 -3 6 -13 10 -21 10
-13 0 -237 107 -299 143 -70 40 -181 112 -183 119 -2 4 -10 8 -17 8 -7 0 -15
4 -17 8 -1 5 -30 28 -62 52 -67 49 -89 67 -151 125 -23 22 -62 58 -86 81 -24
22 -71 71 -104 108 -33 38 -64 74 -70 80 -5 6 -30 38 -54 71 -25 33 -48 62
-53 63 -4 2 -8 10 -8 17 0 7 -3 15 -8 17 -10 4 -112 166 -112 178 0 6 -4 10
-10 10 -5 0 -12 11 -16 25 -3 14 -10 25 -15 25 -5 0 -9 5 -9 11 0 7 -23 58
-50 115 -28 57 -50 110 -50 118 0 8 -4 18 -10 21 -5 3 -10 13 -10 22 0 8 -6
29 -14 46 -22 52 -34 88 -56 172 -57 214 -66 270 -81 500 -17 248 14 614 61
740 4 11 15 54 25 95 10 41 21 80 24 85 4 6 15 35 25 65 10 30 22 66 28 80 6
14 14 34 19 45 26 65 137 284 150 295 3 3 9 12 12 20 4 8 18 33 32 55 14 22
31 50 37 63 6 12 15 22 20 22 4 0 8 6 8 14 0 8 4 16 8 18 5 2 28 30 53 63 24
33 49 65 54 71 6 6 36 39 67 75 86 98 87 99 183 184 50 44 92 82 95 86 3 3 32
25 65 50 33 24 69 52 79 61 11 10 28 20 38 24 10 3 18 10 18 15 0 5 5 9 10 9
6 0 46 23 90 50 44 28 84 50 90 50 5 0 10 5 10 10 0 6 4 10 10 10 5 0 56 22
112 49 57 26 126 56 153 66 53 18 81 29 118 45 12 5 40 14 62 19 22 5 67 17
100 26 110 30 218 49 360 64 100 11 395 11 490 1z"/>
<path d="M5118 6993 c7 -3 16 -2 19 1 4 3 -2 6 -13 5 -11 0 -14 -3 -6 -6z"/>
<path d="M5048 6983 c7 -3 16 -2 19 1 4 3 -2 6 -13 5 -11 0 -14 -3 -6 -6z"/>
<path d="M5180 6986 c0 -2 9 -6 20 -9 11 -3 18 -1 14 4 -5 9 -34 13 -34 5z"/>
<path d="M4985 6960 c-3 -6 1 -7 9 -4 18 7 21 14 7 14 -6 0 -13 -4 -16 -10z"/>
<path d="M5240 6960 c8 -5 20 -10 25 -10 6 0 3 5 -5 10 -8 5 -19 10 -25 10 -5
0 -3 -5 5 -10z"/>
<path d="M4950 6930 c-9 -6 -10 -10 -3 -10 6 0 15 5 18 10 8 12 4 12 -15 0z"/>
<path d="M5330 6885 c0 -5 5 -17 10 -25 5 -8 10 -10 10 -5 0 6 -5 17 -10 25
-5 8 -10 11 -10 5z"/>
<path d="M4886 6844 c-10 -37 -2 -39 11 -4 6 17 8 30 3 30 -4 0 -11 -12 -14
-26z"/>
<path d="M5361 6814 c0 -11 3 -14 6 -6 3 7 2 16 -1 19 -3 4 -6 -2 -5 -13z"/>
<path d="M5378 6222 c1 -290 3 -594 5 -677 1 -82 4 152 5 522 1 369 -1 674 -5
676 -5 3 -7 -232 -5 -521z"/>
<path d="M4865 5930 c0 -448 1 -632 2 -407 2 224 2 590 0 815 -1 224 -2 40 -2
-408z"/>
<path d="M5585 5383 c488 -7 893 -7 888 0 -2 4 -246 6 -541 5 -295 -2 -451 -4
-347 -5z"/>
<path d="M6530 5366 c0 -2 9 -6 20 -9 11 -3 18 -1 14 4 -5 9 -34 13 -34 5z"/>
<path d="M6597 5339 c7 -7 15 -10 18 -7 3 3 -2 9 -12 12 -14 6 -15 5 -6 -5z"/>
<path d="M6712 5190 c0 -14 2 -19 5 -12 2 6 2 18 0 25 -3 6 -5 1 -5 -13z"/>
<path d="M6721 5124 c0 -11 3 -14 6 -6 3 7 2 16 -1 19 -3 4 -6 -2 -5 -13z"/>
<path d="M6712 5060 c0 -14 2 -19 5 -12 2 6 2 18 0 25 -3 6 -5 1 -5 -13z"/>
<path d="M4890 5010 c0 -5 5 -10 11 -10 5 0 7 5 4 10 -3 6 -8 10 -11 10 -2 0
-4 -4 -4 -10z"/>
<path d="M4992 4905 c9 -10 21 -16 28 -13 7 2 -1 10 -16 17 -27 12 -28 11 -12
-4z"/>
<path d="M6580 4900 c-9 -6 -10 -10 -3 -10 6 0 15 5 18 10 8 12 4 12 -15 0z"/>
<path d="M5458 4863 c189 -2 495 -2 680 0 185 1 31 2 -343 2 -374 0 -526 -1
-337 -2z"/>
</g>
</svg>
