<?xml version="1.0" standalone="no"?>
<!DOCTYPE svg PUBLIC "-//W3C//DTD SVG 20010904//EN"
 "http://www.w3.org/TR/2001/REC-SVG-20010904/DTD/svg10.dtd">
<svg version="1.0" xmlns="http://www.w3.org/2000/svg"
 width="1024.000000pt" height="1024.000000pt" viewBox="0 0 1024.000000 1024.000000"
 preserveAspectRatio="xMidYMid meet">
<metadata>
Created by potrace 1.11, written by Peter Selinger 2001-2013
</metadata>
<g transform="translate(0.000000,1024.000000) scale(0.100000,-0.100000)"
fill="#000000" stroke="none">
<path d="M870 10226 c0 -5 -3 -7 -6 -4 -3 4 -20 0 -39 -7 -18 -8 -36 -11 -40
-7 -5 4 -5 1 0 -7 5 -9 3 -12 -6 -9 -8 3 -20 -2 -28 -9 -7 -8 -20 -12 -28 -9
-8 3 -11 2 -8 -4 7 -11 -29 -32 -40 -22 -5 4 -5 -1 -2 -10 3 -10 3 -17 -1 -17
-25 4 -42 -4 -47 -22 -4 -11 -9 -18 -12 -16 -2 3 -22 -13 -44 -35 -21 -22 -39
-37 -39 -32 0 4 -6 -1 -14 -11 -8 -11 -12 -24 -9 -29 4 -5 2 -7 -3 -4 -12 8
-35 -17 -26 -27 4 -5 -2 -6 -14 -3 -17 4 -21 1 -18 -19 2 -19 0 -22 -11 -13
-11 9 -14 6 -17 -12 -2 -13 -9 -22 -16 -20 -6 1 -12 -3 -12 -9 0 -5 -5 -7 -12
-3 -8 5 -9 2 -5 -9 4 -11 1 -17 -8 -17 -8 0 -15 -5 -15 -11 0 -5 -5 -7 -12 -3
-7 5 -9 2 -5 -8 3 -10 -3 -19 -19 -27 -22 -10 -29 -22 -25 -45 1 -5 -6 -3 -15
5 -16 12 -17 12 -11 -3 3 -10 2 -18 -4 -18 -16 0 -84 -73 -81 -87 2 -7 -3 -10
-12 -7 -8 3 -17 0 -22 -7 -5 -8 -3 -10 7 -4 12 8 12 6 0 -8 -7 -9 -18 -14 -24
-10 -7 4 -8 0 -4 -11 6 -14 3 -17 -9 -12 -14 5 -15 4 -4 -9 10 -12 10 -15 0
-15 -7 0 -10 -7 -6 -16 3 -8 2 -13 -2 -10 -4 3 -14 -4 -21 -16 -10 -16 -10
-19 1 -13 7 3 6 1 -3 -7 -9 -7 -14 -19 -12 -25 3 -7 -2 -16 -11 -19 -8 -3 -12
-12 -9 -20 3 -8 -1 -22 -8 -31 -12 -14 -12 -16 1 -9 13 6 13 6 0 -6 -9 -7 -15
-20 -15 -28 1 -8 -4 -21 -9 -29 -8 -11 -8 -13 1 -8 13 8 13 -29 0 -50 -4 -6
-2 -15 4 -19 8 -4 7 -9 -2 -15 -10 -6 -10 -9 -2 -9 7 0 10 -6 7 -14 -3 -8 0
-25 7 -38 12 -22 11 -22 -6 -8 -17 14 -17 14 -7 -7 7 -12 12 -31 12 -43 0 -13
4 -18 11 -14 7 4 10 -2 8 -17 -2 -13 0 -30 4 -36 5 -7 5 -13 1 -13 -4 0 1 -7
12 -15 12 -9 14 -14 6 -15 -7 0 -10 -5 -7 -10 4 -6 11 -8 16 -5 5 4 9 -3 9
-15 0 -14 4 -19 12 -14 8 5 9 2 5 -10 -4 -10 -1 -19 8 -22 8 -4 13 -10 10 -15
-3 -4 6 -16 20 -25 14 -9 25 -23 25 -30 0 -8 5 -14 10 -14 6 0 10 -7 10 -16 0
-8 5 -12 10 -9 6 3 14 -4 19 -17 6 -14 10 -17 11 -8 1 9 5 6 11 -8 5 -13 13
-20 19 -17 6 3 10 -3 10 -15 0 -17 4 -21 17 -16 10 4 14 4 11 0 -8 -7 16 -34
31 -34 5 0 8 -9 6 -21 -4 -18 -2 -19 12 -7 12 9 15 9 9 1 -4 -7 -3 -13 2 -13
4 0 19 -10 32 -22 14 -13 31 -23 40 -23 8 -1 14 -6 13 -13 -2 -6 4 -9 12 -6
10 4 15 0 15 -12 0 -16 2 -16 10 -4 8 12 10 12 15 -3 6 -14 11 -15 28 -5 12 6
19 7 15 3 -4 -5 -3 -14 3 -21 8 -10 16 -11 31 -3 11 6 18 7 15 2 -3 -5 3 -15
15 -22 11 -7 17 -8 13 -2 -8 13 5 14 25 1 9 -5 19 -5 26 1 8 7 15 6 20 -2 5
-8 3 -9 -6 -4 -9 6 -11 4 -5 -5 6 -10 11 -9 22 5 10 14 13 15 13 4 0 -8 9 -15
20 -15 11 0 20 7 20 15 0 11 4 10 16 -5 8 -10 13 -14 10 -8 -6 13 18 27 28 16
10 -10 37 -11 31 -1 -4 5 8 7 24 5 19 -2 28 1 24 7 -4 6 2 8 15 5 12 -3 23 -1
25 5 2 7 16 11 31 9 16 -1 25 2 21 8 -3 6 3 10 14 10 12 0 21 5 21 10 0 6 7
10 15 10 8 0 15 6 15 13 0 8 4 7 10 -3 8 -13 10 -13 10 1 0 9 12 21 26 27 15
7 22 17 18 24 -4 7 -3 8 5 4 15 -10 44 20 35 36 -5 8 0 7 11 -2 10 -8 16 -10
12 -4 -4 7 4 19 18 28 14 9 23 21 20 27 -4 5 -1 8 7 7 7 -2 12 5 12 14 -1 10
4 14 12 11 8 -3 14 0 14 5 0 6 9 13 20 17 11 3 19 12 17 18 -1 7 4 11 12 9 12
-3 12 -1 0 14 -8 10 -9 15 -2 11 13 -8 103 69 103 88 0 7 8 19 18 26 16 13 16
13 2 -6 -8 -11 16 11 53 48 41 41 65 73 60 80 -4 7 2 5 12 -3 10 -8 16 -10 12
-4 -4 6 2 19 13 29 11 10 17 21 14 26 -2 4 5 13 16 19 11 6 20 18 20 26 0 8 5
12 10 9 6 -3 10 1 10 9 0 9 4 16 9 16 5 0 8 11 6 25 -2 20 1 23 11 15 10 -9
12 -5 9 16 -1 15 5 34 16 45 12 12 14 19 6 23 -9 3 -9 5 0 5 7 1 10 8 7 16 -4
9 0 15 7 15 11 0 11 3 -1 10 -10 6 -11 10 -2 10 6 0 12 7 12 16 0 9 5 12 12 8
7 -5 8 -3 3 7 -11 16 -14 49 -6 49 9 0 5 110 -4 118 -5 4 -5 1 -1 -5 4 -7 2
-13 -3 -13 -14 0 -14 13 1 28 9 9 8 12 -4 12 -12 0 -15 7 -12 26 3 19 1 24 -8
18 -10 -6 -9 -3 1 9 10 13 10 17 1 17 -9 0 -9 4 1 17 10 11 10 14 2 9 -8 -4
-13 -1 -13 8 0 9 -5 16 -11 16 -5 0 -8 4 -4 9 3 6 -2 14 -11 19 -11 6 -15 17
-11 31 3 12 0 21 -6 22 -7 0 -23 14 -37 32 -19 25 -20 29 -5 17 20 -14 20 -14
1 7 -10 13 -23 20 -27 17 -5 -3 -6 2 -3 10 4 11 0 16 -10 16 -9 0 -16 6 -16
13 0 18 -69 79 -81 71 -5 -3 -9 -2 -8 3 4 21 -2 33 -17 33 -8 0 -12 5 -9 10 3
6 1 10 -6 10 -7 0 -29 18 -50 39 -28 31 -39 37 -49 28 -10 -9 -11 -9 -6 1 4 7
1 12 -7 12 -8 0 -18 7 -21 16 -4 9 -13 14 -21 10 -8 -3 -15 -1 -15 5 0 6 -7 8
-16 5 -14 -5 -15 -4 -4 9 11 13 8 14 -19 11 -20 -2 -31 1 -31 9 0 7 -13 15
-30 17 -17 3 -30 0 -30 -6 0 -7 -3 -8 -8 -1 -9 12 -182 13 -201 1 -9 -6 -12
-5 -8 1 4 7 -3 10 -18 9 -14 0 -25 -5 -25 -10z m658 -271 c-3 -3 -9 2 -12 12
-6 14 -5 15 5 6 7 -7 10 -15 7 -18z"/>
<path d="M4705 10220 c2 -11 -1 -17 -8 -15 -24 9 -86 12 -82 4 3 -4 1 -10 -5
-14 -5 -3 -10 -1 -10 6 0 8 -4 8 -15 -1 -8 -7 -15 -8 -15 -3 0 5 -7 10 -15 10
-8 0 -12 -4 -9 -8 2 -4 -4 -8 -13 -8 -10 1 -29 -2 -43 -6 -25 -7 -25 -7 -5 9
19 17 19 17 -5 4 -14 -7 -28 -11 -32 -10 -5 1 -8 -2 -8 -8 0 -5 -21 -8 -50 -6
-41 4 -50 1 -50 -12 0 -14 -2 -14 -9 -3 -7 11 -9 11 -14 0 -4 -10 -6 -10 -6
-1 -1 6 -6 12 -12 12 -5 0 -7 -5 -3 -12 5 -8 2 -9 -9 -5 -10 3 -17 3 -17 -1 0
-5 -21 -7 -47 -6 -51 1 -75 -4 -69 -15 3 -4 -4 -7 -14 -7 -16 0 -17 3 -7 16
10 13 10 13 -4 3 -9 -7 -19 -10 -23 -6 -4 4 -4 -1 -1 -12 6 -18 5 -19 -7 -3
-13 15 -15 15 -26 0 -8 -11 -10 -11 -6 -2 5 10 0 9 -15 -4 -23 -21 -64 -30
-54 -12 3 6 1 6 -7 -1 -7 -6 -19 -9 -26 -6 -8 3 -14 0 -14 -6 0 -6 -7 -8 -17
-4 -12 5 -14 3 -8 -8 7 -11 5 -11 -10 1 -11 9 -16 10 -11 3 7 -13 4 -14 -66
-16 -31 -1 -35 -4 -25 -16 9 -12 9 -13 0 -7 -8 4 -13 2 -13 -6 0 -10 -2 -10
-9 1 -8 12 -13 12 -33 -1 -18 -12 -29 -13 -42 -6 -13 7 -17 7 -12 0 3 -6 2
-13 -4 -17 -5 -3 -10 0 -10 7 0 10 -2 10 -9 0 -4 -8 -11 -13 -15 -13 -33 5
-57 -1 -53 -11 3 -9 -7 -13 -35 -11 -26 0 -41 -4 -45 -13 -3 -8 -9 -11 -14 -8
-5 3 -9 0 -9 -6 0 -6 -4 -9 -9 -6 -12 8 -42 -4 -36 -13 2 -4 -9 -7 -25 -6 -17
1 -31 -4 -35 -13 -3 -8 -12 -11 -20 -8 -8 3 -15 1 -15 -4 0 -5 -8 -6 -17 -3
-12 5 -15 2 -10 -9 6 -17 -8 -19 -32 -4 -10 7 -12 6 -6 -4 6 -10 4 -12 -9 -7
-9 4 -15 3 -12 -1 3 -4 -4 -13 -15 -20 -11 -7 -19 -8 -19 -2 0 5 5 10 12 10 6
0 8 3 5 7 -4 4 -21 -4 -39 -17 -17 -12 -28 -16 -24 -9 4 8 1 6 -7 -3 -16 -20
-32 -25 -21 -7 3 6 -5 3 -19 -6 -15 -9 -31 -14 -37 -10 -5 3 -10 1 -10 -5 0
-6 -16 -18 -35 -26 -20 -8 -33 -19 -30 -24 4 -6 -4 -6 -21 0 -24 10 -26 9 -14
-5 7 -9 9 -15 4 -14 -26 5 -45 -2 -38 -13 5 -9 2 -8 -9 1 -15 12 -17 12 -12
-1 5 -11 0 -15 -17 -14 -15 1 -22 -4 -20 -13 3 -12 0 -12 -12 -2 -11 9 -16 9
-22 0 -5 -8 -3 -9 6 -4 9 5 11 4 6 -4 -5 -7 -16 -9 -29 -5 -19 6 -20 5 -9 -8
10 -13 8 -15 -14 -12 -15 1 -27 -3 -31 -13 -5 -12 -7 -12 -14 -1 -7 10 -9 9
-9 -5 0 -11 -6 -17 -17 -15 -10 2 -17 -2 -16 -8 1 -8 -6 -10 -19 -6 -15 4 -19
2 -13 -7 5 -10 2 -11 -14 -6 -12 3 -21 3 -20 -2 3 -20 -2 -27 -11 -13 -8 13
-10 13 -10 -2 0 -12 -5 -15 -17 -11 -10 4 -14 2 -10 -4 6 -10 -37 -29 -55 -25
-4 1 -5 -5 -2 -13 4 -10 0 -15 -15 -15 -12 0 -21 -4 -21 -10 0 -5 -7 -10 -16
-10 -8 0 -12 -4 -9 -10 3 -5 0 -10 -8 -10 -23 0 -67 -26 -59 -35 4 -5 -1 -6
-10 -2 -10 3 -19 0 -22 -9 -3 -9 -10 -12 -16 -9 -5 3 -10 1 -10 -5 0 -7 -6
-10 -12 -7 -7 2 -24 -10 -37 -27 -16 -20 -22 -24 -17 -11 6 19 5 19 -8 1 -8
-10 -19 -15 -25 -11 -7 4 -8 -1 -4 -12 3 -10 3 -15 -2 -11 -4 4 -14 0 -22 -10
-9 -10 -12 -11 -7 -2 6 12 4 12 -12 -1 -10 -9 -26 -19 -34 -22 -9 -3 -10 -6
-2 -6 6 -1 12 -5 12 -10 0 -4 -11 -7 -24 -6 -15 2 -23 -1 -21 -8 6 -15 -62
-50 -77 -41 -6 4 -8 2 -4 -4 8 -13 -11 -32 -59 -62 -19 -12 -35 -28 -35 -36 0
-8 -6 -11 -15 -8 -13 5 -19 -5 -17 -27 1 -3 -11 -4 -26 -1 -24 5 -26 4 -13
-12 12 -14 12 -16 -1 -11 -10 4 -23 -5 -37 -24 -14 -19 -27 -28 -37 -24 -8 3
-14 2 -12 -3 2 -5 -1 -9 -5 -9 -5 0 -13 -8 -18 -18 -6 -10 -15 -14 -22 -10 -7
4 -6 -1 2 -10 12 -15 12 -17 -1 -12 -9 4 -18 -1 -21 -9 -4 -9 -14 -16 -22 -16
-9 0 -13 -4 -10 -10 3 -5 1 -10 -5 -10 -6 0 -9 -4 -5 -9 3 -5 0 -13 -6 -17 -7
-4 -9 -3 -5 4 3 6 2 13 -4 17 -5 3 -10 1 -10 -6 0 -6 -8 -18 -17 -26 -10 -8
-12 -11 -4 -7 10 5 12 3 7 -5 -5 -7 -14 -10 -22 -7 -8 3 -13 0 -11 -7 1 -7 -6
-11 -16 -11 -14 2 -15 -1 -6 -13 10 -11 10 -14 -2 -11 -8 2 -13 -2 -12 -9 2
-7 -4 -10 -13 -6 -9 3 -14 0 -12 -8 2 -8 -3 -13 -9 -11 -12 2 -17 -10 -15 -29
1 -4 -8 -4 -20 -1 -17 4 -20 2 -15 -13 6 -14 3 -16 -12 -12 -14 3 -18 1 -14
-9 3 -8 -2 -17 -11 -20 -9 -3 -13 -11 -9 -17 4 -6 0 -8 -11 -4 -9 4 -14 3 -11
-2 3 -5 -4 -12 -15 -16 -11 -3 -20 -11 -20 -18 0 -8 3 -8 12 1 7 7 17 12 22
12 6 0 -1 -8 -14 -17 -14 -10 -28 -17 -33 -15 -4 1 -7 -7 -7 -18 0 -11 -6 -19
-12 -17 -7 1 -12 -6 -12 -15 1 -11 -5 -15 -18 -13 -10 2 -16 0 -13 -6 4 -5 1
-9 -6 -9 -7 0 -10 -3 -6 -6 8 -8 -16 -33 -25 -27 -5 2 -8 -6 -8 -17 0 -15 -5
-20 -14 -17 -9 4 -17 -2 -21 -14 -4 -10 -10 -17 -15 -14 -5 3 -7 -4 -5 -15 2
-11 0 -18 -6 -15 -5 4 -9 1 -9 -4 0 -6 -8 -11 -17 -11 -15 0 -16 -2 -3 -10 12
-8 10 -10 -10 -11 -14 0 -19 -3 -12 -6 13 -5 17 -24 5 -22 -20 3 -33 -2 -33
-14 0 -17 -36 -47 -46 -39 -5 4 -2 -2 6 -12 8 -11 10 -17 4 -13 -6 3 -16 -5
-23 -19 -6 -14 -16 -22 -21 -19 -6 4 -7 -1 -3 -11 4 -12 3 -15 -5 -10 -7 4
-12 1 -12 -8 0 -9 -7 -16 -16 -16 -14 0 -15 -2 -3 -17 10 -11 10 -14 1 -9 -7
4 -12 2 -12 -4 0 -6 -4 -8 -10 -5 -5 3 -7 0 -4 -8 3 -8 -6 -21 -20 -31 -17
-11 -23 -21 -19 -33 4 -11 3 -14 -5 -9 -11 7 -17 -6 -13 -28 1 -5 -5 -3 -14 4
-13 11 -15 10 -9 -3 3 -9 -3 -23 -15 -34 -12 -9 -21 -23 -21 -30 0 -7 -6 -13
-14 -13 -8 0 -17 -14 -21 -30 -4 -17 -11 -28 -16 -25 -5 4 -6 -2 -2 -11 5 -13
3 -16 -10 -11 -12 4 -15 1 -12 -14 2 -10 -1 -19 -6 -19 -6 0 -8 -4 -5 -9 3 -5
-3 -11 -14 -14 -11 -3 -20 -11 -20 -19 0 -10 3 -10 11 2 9 12 10 12 5 -3 -3
-10 -6 -21 -6 -24 0 -3 -6 0 -13 6 -11 8 -13 7 -12 -7 0 -9 4 -22 8 -29 4 -6
0 -10 -11 -9 -9 0 -17 -6 -17 -14 0 -20 -18 -39 -29 -32 -5 3 -6 -3 -3 -12 6
-14 3 -17 -9 -12 -15 6 -15 4 -3 -11 12 -15 12 -16 -5 -10 -17 7 -17 6 -5 -10
12 -14 12 -16 0 -8 -11 6 -13 4 -8 -8 3 -9 3 -16 -1 -14 -4 1 -7 -1 -7 -5 0
-4 -9 -14 -20 -23 -11 -9 -13 -14 -5 -10 9 4 7 0 -4 -9 -10 -8 -15 -20 -11
-26 4 -7 -1 -13 -12 -16 -10 -3 -20 -14 -20 -25 -3 -33 -27 -80 -40 -75 -7 3
-10 -5 -8 -20 1 -13 -2 -27 -7 -30 -4 -3 -6 -10 -2 -15 3 -5 0 -8 -7 -7 -7 2
-14 -6 -16 -17 -3 -11 -7 -27 -10 -35 -3 -8 -5 -18 -5 -22 1 -5 -3 -8 -8 -8
-6 0 -10 -8 -10 -17 0 -16 -2 -16 -11 -3 -9 12 -10 11 -6 -7 3 -13 -2 -28 -13
-38 -10 -9 -17 -24 -16 -33 2 -9 -3 -22 -10 -30 -7 -7 -10 -20 -7 -29 4 -9 2
-14 -3 -11 -5 3 -16 -1 -24 -10 -13 -14 -12 -15 5 -9 17 6 18 5 5 -5 -8 -7
-15 -19 -16 -25 -2 -30 -5 -34 -16 -27 -7 4 -8 3 -4 -5 4 -6 2 -18 -4 -26 -7
-8 -9 -15 -5 -15 5 0 0 -10 -11 -22 -10 -12 -13 -18 -7 -14 9 5 11 2 7 -8 -3
-9 -11 -13 -18 -9 -6 4 -5 -1 3 -10 10 -13 10 -17 1 -17 -7 0 -10 -7 -6 -15 3
-8 -4 -24 -17 -35 -13 -13 -18 -24 -12 -28 6 -4 11 -13 13 -21 3 -12 1 -12
-14 0 -12 9 -15 9 -10 2 4 -7 3 -13 -2 -13 -5 0 -9 -8 -9 -17 0 -49 -3 -58
-13 -43 -5 8 -10 10 -10 5 0 -6 6 -17 13 -24 10 -11 9 -12 -2 -6 -11 6 -13 4
-8 -9 6 -14 3 -17 -9 -12 -14 5 -15 4 -5 -8 7 -8 8 -15 2 -18 -5 -1 -11 -19
-14 -38 -3 -26 -8 -35 -21 -34 -16 2 -16 0 1 -19 10 -11 13 -18 8 -15 -6 4
-15 -5 -22 -18 -6 -13 -7 -22 -2 -18 14 8 11 -6 -5 -22 -9 -8 -13 -25 -10 -40
3 -14 1 -23 -4 -20 -5 3 -6 -9 -4 -26 4 -24 2 -30 -10 -26 -11 5 -13 -1 -10
-24 3 -19 -1 -33 -9 -39 -8 -5 -9 -9 -4 -9 6 0 10 -11 10 -24 0 -17 -4 -22
-15 -18 -8 3 -12 2 -8 -3 4 -4 2 -15 -5 -23 -10 -13 -9 -14 3 -7 13 8 13 6 1
-8 -7 -9 -11 -24 -7 -32 3 -9 0 -15 -9 -15 -8 0 -15 -5 -15 -11 0 -5 4 -8 9
-4 5 3 13 1 16 -5 4 -6 1 -9 -7 -8 -8 2 -12 -4 -10 -16 2 -10 -2 -23 -10 -27
-11 -7 -11 -9 1 -9 10 0 10 -6 -4 -26 -9 -15 -12 -23 -6 -20 18 11 13 -5 -6
-21 -10 -8 -12 -12 -6 -8 7 3 13 1 13 -4 0 -6 -4 -11 -9 -11 -5 0 -7 -9 -4
-20 3 -11 -1 -28 -8 -37 -8 -9 -9 -14 -3 -10 7 4 12 -3 12 -18 -1 -14 -4 -28
-9 -31 -5 -3 -9 -10 -9 -15 0 -6 5 -7 12 -3 7 5 8 3 4 -5 -5 -7 -14 -10 -22
-7 -8 3 -11 0 -8 -9 3 -8 13 -11 22 -8 13 4 12 2 -3 -10 -11 -9 -16 -17 -11
-17 5 0 3 -6 -3 -14 -8 -10 -9 -16 -1 -21 6 -3 7 -11 4 -17 -13 -20 -14 -79
-2 -72 7 4 8 3 4 -5 -4 -6 -11 -9 -16 -6 -5 3 -11 1 -15 -5 -3 -5 -1 -10 4
-10 6 0 11 -5 11 -11 0 -5 -4 -7 -10 -4 -14 9 -12 -8 3 -24 10 -11 9 -12 -1
-7 -10 6 -12 -3 -11 -36 2 -24 -1 -49 -4 -55 -4 -6 -1 -14 5 -16 7 -3 4 -6 -7
-6 -17 -1 -17 -3 -5 -11 13 -9 13 -10 0 -10 -13 0 -13 -2 -1 -9 8 -5 16 -17
17 -25 1 -9 -2 -14 -7 -10 -5 3 -6 11 -3 17 5 9 3 9 -6 0 -10 -10 -11 -15 -1
-27 9 -10 9 -16 1 -21 -6 -4 -9 -20 -6 -36 2 -16 0 -29 -6 -29 -6 0 -5 -6 2
-15 7 -8 9 -15 4 -15 -5 0 -9 -72 -9 -160 0 -88 4 -160 9 -160 5 0 3 -6 -3
-14 -9 -11 -9 -15 1 -19 7 -3 8 -6 2 -6 -7 -1 -9 -16 -4 -46 4 -25 3 -45 -2
-45 -5 0 -4 -8 1 -18 6 -11 6 -24 1 -32 -6 -9 -5 -17 2 -21 6 -4 12 -19 12
-32 1 -15 -3 -23 -9 -19 -5 3 -4 -2 4 -11 11 -14 11 -17 0 -17 -8 0 -6 -6 7
-16 10 -8 14 -13 7 -10 -6 4 -14 2 -18 -4 -3 -5 -1 -10 6 -10 7 0 9 -8 6 -21
-4 -15 -2 -19 9 -15 9 3 12 1 9 -4 -3 -6 -14 -10 -23 -10 -14 0 -15 -2 -2 -10
9 -5 13 -22 12 -47 -2 -30 0 -35 9 -23 12 16 12 17 -6 -35 -6 -16 -5 -17 4 -5
12 16 13 10 15 -72 0 -21 3 -38 6 -38 3 0 6 -16 6 -35 0 -19 -5 -35 -10 -35
-5 0 1 -8 12 -19 22 -19 30 -37 12 -26 -5 3 -10 1 -10 -4 0 -6 5 -11 11 -11 5
0 7 -5 4 -10 -4 -6 -1 -17 5 -25 10 -11 10 -15 1 -15 -7 0 -10 -4 -7 -9 4 -5
7 -28 8 -51 1 -28 4 -37 10 -28 6 8 7 3 3 -15 -3 -16 -2 -26 3 -23 4 2 7 -8 6
-25 -1 -16 3 -29 9 -29 7 0 7 -4 -1 -12 -7 -7 -12 -17 -12 -22 0 -6 5 -4 10 4
10 16 11 14 15 -35 2 -16 3 -34 4 -40 1 -5 6 -3 11 5 5 8 10 10 10 4 0 -6 -3
-14 -7 -18 -4 -3 -8 -17 -9 -29 -2 -12 0 -16 2 -9 10 23 21 12 22 -23 3 -57 5
-65 15 -65 5 0 7 -9 4 -20 -4 -14 0 -20 11 -20 13 0 12 -3 -4 -15 -13 -10 -14
-14 -4 -13 10 2 15 -7 15 -31 1 -19 7 -37 13 -39 8 -2 9 -9 2 -22 -7 -13 -7
-21 0 -25 6 -4 8 -11 5 -16 -3 -5 1 -6 9 -3 11 4 14 0 11 -15 -2 -12 3 -25 13
-31 15 -8 15 -9 -2 -10 -19 0 -18 -1 3 -21 12 -12 21 -29 18 -38 -2 -9 2 -22
9 -29 7 -7 11 -19 8 -27 -4 -8 -1 -21 5 -29 6 -7 7 -17 3 -21 -4 -5 -2 -5 5
-1 11 6 26 -39 27 -84 1 -8 6 -14 12 -13 5 1 16 -8 24 -20 12 -19 11 -20 -2
-10 -12 10 -15 10 -15 -2 0 -8 6 -16 13 -19 8 -3 11 -12 8 -20 -3 -8 0 -17 5
-21 6 -3 8 -11 5 -17 -4 -6 -3 -8 2 -5 6 3 15 -3 22 -13 10 -17 9 -18 -6 -13
-15 6 -16 5 -2 -13 8 -10 19 -22 23 -25 4 -3 9 -16 10 -27 1 -12 5 -22 9 -22
4 0 5 -7 1 -15 -3 -9 -2 -15 3 -14 20 3 24 -2 14 -21 -8 -16 -8 -20 2 -18 7 2
17 -12 22 -29 6 -18 16 -33 22 -33 7 0 10 -8 7 -19 -3 -13 2 -21 16 -26 18 -5
19 -10 10 -27 -9 -16 -8 -19 2 -13 9 6 11 3 6 -8 -4 -11 -2 -14 7 -11 9 4 13
-3 10 -21 -1 -16 3 -28 12 -32 8 -3 14 -14 14 -24 0 -10 9 -28 19 -38 14 -14
16 -21 8 -25 -9 -3 -8 -5 1 -5 7 -1 10 -5 7 -11 -3 -5 0 -7 9 -4 11 4 14 0 11
-16 -3 -16 0 -20 10 -16 10 3 12 0 8 -11 -4 -11 -2 -14 5 -9 7 4 10 -1 7 -15
-3 -15 2 -23 16 -26 15 -4 17 -8 8 -19 -10 -12 -8 -13 6 -7 14 5 17 3 13 -8
-6 -16 16 -41 28 -31 5 4 2 -2 -6 -12 -10 -13 -10 -17 -2 -12 7 4 12 2 12 -7
0 -8 10 -22 22 -31 13 -9 17 -14 11 -11 -7 3 -13 2 -13 -4 0 -5 9 -13 21 -16
14 -5 17 -10 10 -19 -7 -9 -5 -16 9 -26 11 -8 20 -23 20 -33 0 -10 4 -16 9
-13 11 7 23 -22 14 -36 -3 -7 -1 -8 5 -4 7 4 13 2 13 -3 1 -6 2 -17 3 -23 1
-7 10 -12 20 -10 10 2 15 -1 12 -7 -4 -6 5 -20 19 -33 14 -12 23 -28 21 -35
-3 -7 0 -15 6 -19 7 -5 8 -2 3 6 -6 9 -4 11 4 6 7 -5 10 -15 7 -23 -3 -8 -2
-12 3 -9 8 6 23 -17 25 -39 1 -5 9 -9 19 -7 11 2 15 -2 11 -12 -3 -9 11 -31
35 -55 23 -23 38 -41 34 -41 -3 0 1 -8 10 -17 8 -10 17 -22 19 -28 2 -5 8 -9
15 -9 7 1 12 -1 11 -5 -3 -24 4 -51 13 -51 5 0 8 4 4 9 -3 5 -1 13 5 16 6 4
10 3 9 -2 -4 -22 2 -34 14 -27 9 6 9 4 -1 -8 -14 -18 -6 -27 19 -23 11 2 15
-4 13 -20 -1 -17 2 -22 12 -18 12 4 19 -7 15 -29 0 -4 7 -4 16 -1 11 4 14 3 9
-5 -4 -7 -1 -12 8 -12 10 0 16 -9 16 -21 0 -18 2 -20 16 -9 8 8 14 9 13 4 -3
-19 1 -47 7 -41 8 7 34 -17 34 -32 0 -10 14 -15 33 -12 5 1 6 -3 2 -8 -3 -6 3
-19 14 -30 11 -11 17 -22 13 -25 -3 -3 2 -6 10 -6 9 0 22 -8 29 -18 13 -16 13
-16 -6 -2 -18 14 -19 14 -7 -2 8 -10 22 -20 33 -23 10 -4 19 -12 19 -20 0 -8
9 -17 20 -20 11 -3 20 -11 20 -16 0 -6 -5 -7 -12 -3 -7 4 -8 3 -4 -5 6 -9 11
-9 24 1 9 7 13 8 9 2 -7 -12 28 -46 38 -36 4 4 6 2 5 -3 -6 -28 0 -38 15 -25
13 11 14 10 9 -5 -5 -13 -4 -16 4 -11 7 4 12 1 12 -9 0 -11 5 -15 16 -11 12 4
14 1 9 -14 -5 -15 -2 -18 15 -15 11 2 18 0 15 -5 -3 -5 4 -15 15 -23 11 -7 17
-17 13 -21 -4 -4 -1 -4 8 -1 9 3 25 -5 41 -22 14 -15 34 -34 44 -41 16 -11 15
-11 -6 -1 -26 12 -24 10 25 -31 23 -20 27 -21 16 -5 -7 11 -2 8 12 -7 14 -16
32 -28 40 -28 8 0 21 -8 28 -18 13 -15 12 -16 -4 -3 -9 8 -20 12 -22 9 -3 -3
15 -15 40 -28 24 -12 42 -27 39 -31 -5 -8 10 -13 29 -10 4 0 7 -5 7 -13 0 -8
5 -18 12 -22 7 -5 8 -3 3 5 -5 10 -2 9 13 0 12 -7 19 -16 16 -20 -2 -4 0 -10
6 -14 5 -3 10 -1 10 5 0 6 5 8 10 5 6 -4 8 -11 5 -16 -4 -5 1 -9 9 -9 9 0 16
-8 16 -17 0 -15 2 -16 10 -3 8 13 10 12 10 -3 0 -10 4 -15 10 -12 5 3 10 3 10
-2 0 -8 55 -43 66 -42 4 0 12 -10 18 -23 6 -13 18 -23 27 -23 8 0 23 -8 33
-18 10 -9 26 -17 37 -17 11 0 17 -5 14 -10 -3 -6 1 -11 9 -11 9 -1 21 -2 28
-3 7 0 17 -11 23 -23 9 -18 14 -20 25 -10 10 9 11 9 6 0 -4 -7 -3 -13 3 -13 5
0 12 -8 14 -17 4 -17 5 -17 6 0 1 15 3 16 15 5 10 -10 11 -15 2 -21 -7 -6 -4
-7 7 -3 20 7 50 -17 39 -30 -4 -5 2 -2 12 6 13 10 17 10 12 2 -4 -7 -2 -12 8
-12 8 0 16 -5 18 -10 2 -6 13 -12 26 -13 16 -1 21 -6 17 -16 -3 -9 -3 -12 1
-8 4 4 19 -3 33 -15 14 -13 19 -15 12 -5 -12 15 -12 17 3 11 9 -3 16 -10 16
-15 0 -5 7 -9 16 -9 8 0 12 -5 9 -10 -4 -7 3 -9 19 -6 18 3 26 0 26 -10 0 -8
3 -14 8 -15 34 -3 59 -11 67 -23 6 -7 18 -12 27 -10 10 1 16 -3 15 -9 -1 -5
10 -11 25 -12 16 -1 37 -12 47 -24 14 -16 21 -18 24 -9 4 11 6 10 6 0 1 -7 5
-10 11 -7 5 3 10 -2 11 -12 0 -11 3 -13 6 -5 4 9 10 7 23 -8 13 -15 19 -17 23
-8 4 11 6 10 6 0 1 -7 5 -10 11 -7 5 3 10 -2 10 -12 1 -17 2 -16 16 2 16 20
16 20 10 -1 -5 -18 -2 -21 16 -20 13 1 28 -4 33 -11 8 -10 36 -18 80 -22 6 -1
3 -6 -5 -11 -11 -7 -6 -8 18 -5 17 2 32 0 32 -5 0 -5 8 -6 17 -3 12 5 15 2 11
-8 -4 -11 3 -14 33 -13 27 0 39 -3 39 -13 0 -8 5 -11 10 -8 5 3 10 0 10 -7 0
-9 3 -9 10 2 7 12 10 12 10 1 0 -8 6 -11 16 -7 8 3 13 2 10 -3 -3 -5 1 -12 10
-15 10 -4 13 -2 8 6 -4 7 6 2 22 -9 16 -12 45 -23 64 -25 19 -1 43 -11 53 -21
13 -13 22 -15 31 -8 9 7 16 7 26 -2 10 -9 11 -9 5 1 -6 11 -3 11 13 1 12 -7
19 -16 17 -19 -2 -3 5 -6 15 -6 15 0 17 3 7 16 -10 13 -8 12 8 -1 11 -9 32
-15 47 -14 15 1 25 -2 22 -7 -3 -4 -11 -5 -17 -2 -7 4 -8 3 -4 -1 9 -10 25
-13 85 -16 30 -2 42 -7 42 -18 0 -14 1 -14 10 -1 9 13 10 13 10 0 0 -13 1 -13
10 0 8 13 10 12 10 -3 0 -15 3 -16 20 -7 17 9 20 8 20 -7 0 -15 2 -16 10 -3 8
12 10 12 10 1 0 -11 3 -11 15 -1 13 11 14 10 10 -2 -4 -9 0 -15 10 -15 8 0 15
5 15 11 0 5 7 1 15 -10 10 -14 14 -15 15 -5 0 11 3 12 11 4 8 -8 20 -8 34 -3
17 6 27 5 35 -6 7 -7 29 -14 49 -14 20 0 43 -6 50 -13 11 -9 13 -9 7 1 -4 6
-3 12 2 12 6 0 13 -7 16 -16 6 -15 8 -15 26 1 11 10 23 15 27 12 3 -4 1 -7 -5
-7 -7 0 -12 -4 -12 -8 0 -5 20 -8 45 -7 25 1 45 -2 45 -6 0 -9 20 -6 39 5 10
7 12 3 7 -15 -3 -13 -3 -18 0 -11 3 6 11 9 16 6 6 -4 8 -3 5 3 -3 5 4 9 15 8
12 -1 24 -7 26 -13 2 -7 8 -12 13 -12 6 0 8 4 5 8 -3 5 1 9 9 9 8 0 12 -4 9
-8 -2 -5 11 -7 31 -5 20 1 35 -2 35 -8 0 -6 5 -4 10 4 8 13 10 12 10 -3 0 -17
1 -17 16 -3 19 20 19 20 38 0 9 -8 16 -11 16 -6 0 11 75 9 103 -3 9 -4 29 -5
42 -3 14 3 25 1 25 -3 0 -5 11 -4 25 1 18 7 25 6 25 -2 0 -8 3 -8 9 -2 6 5 49
7 100 4 50 -3 91 -3 91 0 0 3 38 4 85 4 47 -1 85 3 85 7 0 5 5 9 11 9 5 0 7
-5 4 -10 -3 -6 1 -10 9 -10 9 0 16 5 16 10 0 6 5 10 11 10 5 0 8 -4 4 -9 -3
-5 -1 -13 5 -16 6 -4 10 -3 9 2 -3 20 2 27 11 13 8 -12 10 -12 10 5 1 19 1 19
11 2 6 -9 15 -15 20 -12 5 4 7 10 5 14 -3 4 8 5 24 3 17 -2 27 -8 24 -13 -3
-5 2 -6 10 -3 9 3 13 10 10 15 -3 5 6 5 20 -1 19 -7 26 -6 26 3 0 8 4 7 10 -3
6 -10 10 -11 10 -3 0 9 10 11 30 7 19 -4 36 -1 47 7 10 8 14 9 10 2 -5 -8 0
-11 13 -10 11 1 20 5 20 10 0 5 7 4 15 -3 12 -10 16 -9 20 2 3 8 16 14 28 13
12 -1 26 0 31 3 4 2 38 6 75 8 87 5 91 6 84 17 -4 6 3 8 15 5 12 -4 22 -2 22
3 0 6 8 5 20 -1 12 -6 20 -7 20 -1 0 5 10 7 22 3 14 -3 19 -1 14 6 -3 6 -2 13
4 17 5 3 10 -1 10 -9 0 -8 5 -18 12 -22 6 -4 8 -3 4 4 -3 6 -2 13 4 17 5 3 10
0 11 -7 0 -7 4 -4 9 7 6 14 9 15 10 5 0 -12 3 -11 11 3 8 13 14 15 24 7 16
-13 47 -2 38 14 -4 6 2 4 12 -4 15 -12 17 -12 10 -1 -6 11 -4 13 8 8 10 -3 17
-2 17 4 0 6 5 7 12 3 6 -4 18 2 26 12 13 18 14 18 7 -6 -7 -22 -6 -23 8 -11 9
7 15 17 12 20 -2 4 2 8 10 8 8 0 11 -5 8 -11 -4 -6 1 -5 10 3 9 7 28 11 42 9
22 -5 23 -3 13 10 -11 13 -10 14 10 3 12 -6 22 -8 22 -3 0 15 48 20 60 8 8 -8
10 -7 5 5 -3 9 0 16 7 16 33 2 75 10 85 16 5 3 20 5 32 2 12 -2 19 0 16 6 -4
5 -12 6 -18 3 -7 -4 -9 -3 -4 1 4 5 24 10 45 12 20 2 42 10 47 17 8 10 16 11
28 4 12 -6 17 -6 15 3 -2 6 8 13 22 15 13 3 27 9 31 15 4 8 8 7 12 -2 4 -10 6
-10 6 -1 1 6 8 12 17 12 8 0 13 4 10 8 -3 5 10 8 29 7 20 0 37 5 39 12 3 7 12
13 21 13 8 0 15 6 15 13 0 9 3 8 9 -2 6 -10 10 -10 16 -1 4 6 13 9 21 6 8 -3
14 -1 14 5 0 6 7 8 15 5 9 -3 18 1 21 9 4 8 10 13 14 10 5 -3 11 -1 15 5 3 6
18 8 31 6 22 -4 24 -3 13 10 -10 12 -9 13 6 8 13 -5 16 -4 11 4 -5 8 -2 10 8
6 9 -4 16 -1 16 6 0 7 7 10 15 7 8 -4 17 -2 20 4 4 5 11 7 16 4 5 -4 9 1 9 9
0 16 3 18 38 19 9 1 22 8 28 16 6 7 21 14 35 15 13 0 25 7 25 14 3 22 4 23 25
11 15 -8 19 -8 15 0 -6 10 6 15 27 12 4 0 7 3 7 9 0 5 7 10 16 10 9 0 12 5 8
13 -6 9 -4 9 8 -1 13 -10 18 -10 24 -1 5 8 3 9 -6 4 -9 -6 -11 -4 -6 4 5 7 14
10 22 7 7 -3 16 -1 19 5 4 5 11 6 17 3 6 -4 8 -2 4 4 -3 6 -2 13 4 17 5 3 10
1 10 -5 0 -7 7 -5 16 4 8 9 22 16 30 16 17 0 19 16 2 24 -7 3 -3 3 10 0 12 -3
22 -1 22 5 0 5 10 8 21 6 12 -3 19 -2 16 1 -11 12 17 32 30 22 9 -7 11 -4 8
12 -3 18 -2 20 10 10 16 -13 30 3 19 23 -5 7 -1 7 12 -3 10 -8 16 -10 12 -6
-10 11 21 35 45 36 10 0 15 5 12 10 -3 5 3 10 14 10 12 0 21 5 21 11 0 5 5 7
12 3 8 -5 9 -2 4 11 -5 15 -4 16 9 5 12 -10 15 -10 15 4 0 9 3 15 8 15 19 -3
33 2 28 10 -3 5 2 8 12 7 10 0 16 5 14 13 -3 12 0 12 13 1 13 -11 15 -10 10 2
-4 9 1 18 10 22 11 4 14 2 10 -7 -4 -6 2 -2 13 10 11 12 22 19 26 16 3 -3 8 2
12 11 3 9 13 16 21 16 12 0 13 3 4 14 -10 12 -8 13 8 9 16 -4 21 -1 21 13 0
16 2 17 10 4 7 -12 10 -12 10 -1 0 8 6 11 16 7 15 -6 15 -4 3 11 -9 11 -10 14
-1 9 7 -4 12 -2 12 4 0 6 4 9 9 6 5 -3 14 1 21 9 7 8 19 15 27 15 12 0 13 3 4
14 -10 12 -7 14 17 12 22 -1 28 2 25 12 -3 8 3 15 16 19 11 3 21 13 21 22 0
12 2 13 9 3 6 -11 12 -8 27 10 11 14 25 23 32 20 8 -2 10 2 5 14 -4 12 -3 15
5 10 7 -4 12 -2 12 4 0 6 4 8 10 5 5 -3 12 6 16 20 4 16 12 24 23 23 9 -2 15
3 13 10 -1 6 4 12 12 12 8 0 17 7 20 16 3 9 11 12 18 8 7 -4 10 -4 6 0 -10 11
28 49 41 42 6 -4 9 -1 5 7 -3 8 3 20 13 28 17 13 17 13 3 -5 -15 -19 -14 -19
12 -2 15 10 25 22 22 27 -3 5 2 12 12 16 9 3 31 21 50 40 18 18 38 33 44 33 5
0 10 5 10 11 0 15 40 50 50 44 4 -3 7 3 6 13 0 9 4 16 11 15 7 -2 10 6 8 17
-2 12 1 17 10 14 7 -3 16 0 21 7 5 8 3 10 -7 4 -12 -8 -12 -6 0 8 7 9 18 14
24 10 6 -4 8 0 4 10 -5 12 -1 17 13 17 14 0 18 5 13 17 -4 11 -3 14 5 9 7 -4
12 -2 12 4 0 6 4 9 9 6 5 -4 8 5 7 18 -2 17 1 23 10 19 8 -3 11 -10 7 -16 -3
-6 -1 -7 5 -3 6 4 9 13 6 21 -4 10 3 18 20 25 14 5 26 12 26 15 0 4 -6 3 -12
-1 -7 -4 -4 2 7 13 11 11 25 18 30 15 6 -3 4 2 -4 11 -12 15 -12 17 4 11 13
-5 16 -4 11 4 -4 8 -1 12 10 12 10 0 14 3 11 6 -4 4 5 17 19 29 15 13 23 28
20 34 -4 7 -1 9 8 5 11 -4 19 3 26 22 6 16 21 37 33 47 12 10 16 16 10 12 -9
-4 -11 -1 -7 9 3 9 9 14 13 12 3 -2 15 3 26 11 16 13 17 15 2 10 -16 -6 -16
-5 -1 18 17 26 30 34 19 13 -4 -7 1 -4 9 7 9 11 14 25 12 31 -2 6 3 11 12 10
11 -1 17 6 16 20 0 13 4 20 12 17 6 -2 15 1 20 8 4 8 3 10 -4 5 -7 -4 -12 -2
-12 3 0 6 7 11 15 11 8 0 15 7 15 15 0 8 3 15 8 15 4 0 13 13 20 30 8 17 20
30 28 30 9 0 12 5 9 10 -3 6 -1 10 4 10 6 0 11 7 11 15 0 8 5 15 11 15 6 0 8
7 5 16 -3 8 -2 12 3 9 5 -3 12 -1 16 5 3 5 1 10 -4 10 -6 0 -11 4 -11 10 0 5
7 6 17 3 12 -5 14 -3 8 7 -6 10 -4 12 10 6 14 -5 15 -3 7 6 -7 9 -6 16 3 25 7
6 15 10 17 7 3 -2 4 9 3 26 -1 16 1 27 5 25 10 -6 35 13 35 27 1 7 -4 17 -10
21 -6 4 -1 7 10 5 15 -2 19 2 17 16 -3 14 1 17 14 12 10 -4 15 -4 11 0 -3 4 3
21 15 38 19 27 20 29 3 16 -18 -14 -18 -14 0 11 11 15 23 25 28 22 4 -2 7 5 7
17 0 13 4 19 12 14 6 -4 8 -3 5 2 -8 14 23 75 35 68 6 -4 5 3 -1 15 -10 17 -9
21 3 21 8 0 18 5 22 12 5 7 2 9 -7 4 -10 -6 -10 -4 1 6 8 7 15 18 16 23 3 23
17 55 25 55 5 0 9 5 9 11 0 5 -6 7 -12 4 -7 -4 -5 0 5 8 9 8 17 20 17 26 0 7
5 9 12 5 6 -4 8 -3 5 4 -10 15 3 43 17 35 6 -3 8 -3 4 2 -4 4 -2 15 5 23 9 12
9 14 0 9 -8 -5 -8 1 2 19 8 15 12 31 9 36 -3 4 1 5 8 3 13 -5 16 4 20 52 1 6
7 9 14 6 9 -3 12 2 9 16 -2 12 1 21 7 21 6 0 6 6 -2 15 -11 13 -10 14 5 9 14
-6 16 -3 10 16 -4 14 -3 20 3 16 12 -7 24 25 28 74 1 19 3 37 3 39 1 2 7 -2
14 -8 11 -9 13 -5 12 20 -1 17 4 37 12 45 12 11 12 14 1 14 -10 1 -9 4 2 13 9
7 14 21 12 31 -2 11 2 24 10 30 7 6 14 19 15 29 1 33 3 37 14 37 5 0 7 -5 3
-12 -4 -6 -3 -8 2 -5 5 3 9 24 9 46 0 23 2 41 6 41 12 0 27 68 17 78 -6 6 -5
12 3 17 8 6 10 4 4 -6 -5 -10 -5 -11 3 -4 8 8 20 60 22 98 0 5 4 5 10 2 6 -3
7 1 4 9 -3 9 -11 13 -17 9 -6 -4 -7 -1 -3 6 5 7 13 10 20 8 7 -3 13 5 14 16 1
17 -1 19 -8 7 -6 -9 -10 -10 -10 -3 0 6 5 15 11 18 6 4 8 13 5 20 -3 8 1 19 9
25 7 6 14 20 14 31 1 10 1 28 2 39 0 11 5 22 10 26 6 3 3 12 -8 20 -14 11 -14
13 -2 8 12 -4 18 3 23 26 3 18 3 37 -1 43 -4 7 0 8 12 3 18 -6 18 -6 -1 15
-17 21 -17 22 -1 16 10 -4 16 -3 12 2 -3 5 -2 11 2 14 5 2 2 2 -6 0 -11 -3
-12 -1 -1 12 7 8 9 15 5 15 -4 0 -1 8 6 17 10 11 10 14 2 9 -7 -4 -13 -2 -13
3 0 6 4 11 9 11 4 0 7 18 6 40 -1 22 2 40 6 40 5 0 9 5 9 11 0 5 -4 7 -10 4
-6 -3 -7 1 -4 9 3 9 10 13 15 10 5 -3 9 -1 9 5 0 5 -7 14 -17 19 -15 9 -14 10
3 16 16 5 19 14 17 48 -1 23 3 48 9 55 5 7 8 26 6 43 -3 16 -2 30 2 30 4 0 6
12 5 27 -1 16 3 31 9 35 7 5 6 8 -4 8 -13 0 -13 1 0 10 8 5 10 10 4 10 -12 0
-10 80 3 89 4 3 9 12 11 20 3 12 1 12 -15 0 -17 -13 -17 -13 0 7 18 21 23 39
9 30 -5 -3 -9 1 -9 9 0 8 3 14 6 13 19 -2 24 4 12 11 -12 8 -12 12 -2 25 12
15 8 20 -12 17 -4 -1 0 10 9 24 11 16 12 25 5 25 -7 0 -9 5 -5 12 10 16 11
278 1 278 -4 0 -3 9 3 20 8 15 8 20 -2 20 -9 0 -9 3 0 12 9 9 8 16 -5 30 -13
14 -13 17 -2 13 10 -4 14 2 13 23 -1 35 -12 54 -26 46 -7 -4 -8 -2 -4 5 4 6
11 9 16 6 4 -3 11 2 14 11 5 12 2 15 -11 10 -16 -6 -15 -5 1 13 13 14 14 21 5
27 -8 5 -10 3 -4 -7 8 -12 6 -12 -8 0 -19 15 -22 22 -8 19 5 -2 9 2 9 7 0 6
-5 9 -12 7 -6 -1 -4 3 5 10 21 17 21 48 0 41 -11 -3 -10 0 3 11 16 13 16 16 5
16 -9 0 -16 7 -16 15 0 8 4 12 8 9 4 -2 11 0 14 6 4 6 1 9 -5 8 -7 -2 -14 7
-16 20 -3 17 0 21 8 16 10 -6 10 -4 2 7 -6 8 -12 32 -12 53 -1 25 -8 43 -17
49 -9 4 -12 13 -8 20 12 19 12 37 0 37 -8 0 -8 3 1 12 9 9 7 14 -6 25 -13 10
-13 12 -2 8 11 -4 16 1 16 14 0 13 -6 18 -19 15 -19 -3 -19 -3 -1 17 18 20 18
21 -1 35 -10 8 -14 14 -7 14 8 0 9 7 3 23 -5 13 -9 32 -8 43 1 12 -3 18 -12
16 -11 -2 -12 0 -3 11 9 10 9 17 -1 26 -9 10 -8 11 7 5 13 -5 17 -4 12 4 -4 7
-14 12 -22 12 -8 0 -12 5 -9 10 4 6 11 8 16 5 5 -3 6 1 3 9 -3 9 -11 16 -18
16 -6 0 -4 5 4 10 8 5 10 10 4 10 -6 0 -11 8 -11 18 0 36 -3 43 -15 36 -9 -5
-9 -2 1 9 11 14 11 17 0 17 -11 0 -11 2 1 10 11 7 11 10 2 10 -7 0 -12 8 -11
18 3 32 -1 43 -13 36 -7 -5 -9 -2 -5 8 3 9 0 24 -8 34 -9 13 -10 24 -4 36 5
10 6 18 2 18 -5 0 -10 12 -11 26 -1 15 -6 32 -10 38 -4 6 -9 25 -11 41 -2 17
-6 32 -10 35 -4 3 -7 15 -8 28 -1 40 -3 43 -15 36 -10 -6 -10 -4 0 8 11 14 10
17 -5 21 -16 4 -16 5 2 6 18 1 18 2 -3 17 -17 12 -20 19 -12 29 8 10 6 17 -10
28 -16 11 -18 16 -8 20 9 4 9 6 1 6 -7 1 -10 8 -7 16 4 8 1 15 -6 15 -7 0 -9
8 -5 21 4 12 3 19 -1 16 -5 -3 -17 10 -26 29 -12 23 -14 34 -6 34 7 0 3 7 -8
16 -10 8 -13 13 -6 9 16 -8 15 3 -2 20 -7 8 -17 11 -20 7 -4 -4 -3 6 3 21 7
19 7 27 0 27 -6 0 -9 6 -6 14 3 8 -1 20 -9 26 -8 7 -14 23 -14 36 0 13 -5 24
-11 24 -5 0 -7 5 -4 10 3 6 -2 10 -12 11 -10 0 -13 3 -5 6 17 7 15 33 -4 33
-8 0 -13 3 -11 8 8 13 -12 53 -24 46 -8 -5 -8 -1 0 14 9 17 8 23 -5 30 -9 5
-17 13 -17 18 -1 5 -5 8 -9 7 -4 -2 -5 4 -1 13 3 8 -5 26 -18 41 -13 14 -18
23 -12 19 9 -5 11 -2 7 8 -3 8 -12 17 -21 20 -8 4 -13 13 -9 21 3 8 -3 19 -12
24 -14 8 -14 10 -2 11 9 0 11 3 5 8 -17 12 -41 47 -27 38 6 -4 12 -2 12 3 0 6
-7 11 -16 11 -9 0 -14 6 -11 13 2 6 -3 18 -12 25 -9 8 -11 11 -4 8 6 -4 15 -2
18 4 4 6 3 10 -2 9 -24 -4 -33 4 -33 27 0 14 -4 23 -9 19 -5 -3 -11 5 -13 17
-2 13 -9 22 -15 21 -6 -1 -10 8 -8 23 1 13 -2 27 -6 30 -5 3 -9 -1 -9 -8 0
-10 -3 -9 -9 2 -6 8 -7 18 -5 22 3 4 -3 8 -13 8 -15 0 -16 2 -3 10 10 6 11 10
3 10 -7 0 -13 6 -13 13 0 7 -9 19 -20 27 -14 10 -16 16 -7 22 9 6 9 8 0 8 -16
0 -45 55 -35 66 4 5 -1 3 -10 -4 -14 -11 -16 -10 -11 7 3 13 1 21 -6 21 -7 0
-9 5 -6 10 3 6 1 10 -6 10 -7 0 -10 3 -6 6 3 4 -2 14 -11 23 -11 10 -12 12 -2
6 8 -5 5 2 -8 17 -18 19 -20 27 -10 32 7 3 3 4 -10 2 -19 -4 -22 -1 -16 16 4
14 2 18 -5 14 -6 -4 -11 0 -11 8 0 9 -7 16 -16 16 -14 0 -14 3 -4 15 11 13 10
14 -4 9 -12 -4 -16 0 -16 15 0 12 -6 21 -16 21 -11 0 -14 6 -9 21 6 18 5 20
-14 10 -14 -8 -21 -8 -21 -1 0 5 5 10 10 10 6 0 -3 13 -20 30 -16 16 -30 36
-30 45 0 8 -4 15 -10 15 -5 0 -10 7 -10 15 0 8 -7 15 -16 15 -8 0 -12 5 -9 10
3 6 1 10 -4 10 -6 0 -10 5 -8 12 1 7 -3 12 -10 13 -17 0 -29 15 -12 15 10 1 9
4 -4 11 -9 6 -14 15 -11 21 5 7 1 9 -9 5 -10 -4 -16 -2 -14 6 1 7 -4 11 -11 9
-8 -1 -11 2 -8 7 9 14 -4 41 -21 41 -8 0 -11 5 -8 10 3 6 0 10 -8 10 -8 0 -18
7 -21 16 -3 9 -11 12 -18 8 -10 -6 -10 -4 0 8 11 14 9 18 -15 26 -15 6 -21 11
-13 11 10 1 7 6 -8 17 -13 9 -19 20 -15 27 4 7 0 7 -10 -1 -14 -12 -16 -11
-12 7 3 16 -1 21 -16 21 -11 0 -17 5 -14 10 3 6 1 10 -5 10 -6 0 -8 5 -5 10 9
14 -8 12 -25 -2 -12 -11 -12 -10 -1 4 11 15 10 20 -3 33 -9 9 -21 13 -28 9 -9
-6 -9 -3 1 9 12 15 11 17 -7 17 -14 0 -20 5 -16 13 2 7 -6 22 -18 33 l-23 19
20 -25 20 -25 -22 19 c-12 10 -25 27 -28 37 -4 11 -11 17 -16 14 -8 -6 -13 9
-10 29 1 5 -6 6 -15 2 -11 -4 -18 0 -21 14 -3 11 -9 17 -14 14 -5 -3 -9 0 -9
5 0 6 -7 11 -15 11 -9 0 -12 6 -8 17 4 9 2 14 -3 10 -6 -3 -17 3 -24 14 -8 10
-24 19 -35 20 -11 0 -14 3 -8 6 10 3 10 8 -1 19 -17 17 -30 19 -20 2 4 -7 3
-8 -5 -4 -6 4 -9 12 -6 17 4 5 1 9 -5 9 -7 0 -9 7 -6 16 6 15 4 15 -11 3 -11
-9 -14 -10 -9 -1 4 7 2 12 -4 12 -6 0 -8 5 -5 10 4 6 3 10 -2 9 -21 -4 -33 2
-33 18 0 9 -3 14 -6 10 -9 -8 -33 16 -26 27 3 5 -2 7 -11 3 -10 -4 -16 -2 -14
5 1 7 -3 12 -10 13 -6 0 -15 4 -20 9 -5 5 -3 6 5 2 6 -4 12 -2 12 3 0 6 -4 11
-10 11 -5 0 -12 0 -15 0 -3 0 -14 8 -24 18 -36 32 -50 42 -60 42 -5 0 -12 7
-15 16 -3 8 -10 12 -16 9 -5 -3 -10 1 -10 10 0 9 -4 13 -10 10 -5 -3 -10 2
-10 12 0 15 -2 16 -10 3 -5 -8 -10 -10 -10 -4 0 6 -10 16 -22 23 -18 9 -19 10
-3 6 14 -5 17 -3 9 5 -6 6 -21 12 -34 15 -26 5 -40 15 -21 15 7 0 9 5 6 10 -5
8 -12 7 -23 -2 -12 -10 -14 -10 -8 0 4 7 2 12 -4 12 -6 0 -8 5 -4 12 5 8 0 9
-14 6 -17 -5 -22 -2 -22 13 0 10 -3 18 -7 18 -21 -3 -33 2 -33 16 0 8 -9 15
-20 15 -11 0 -20 5 -20 11 0 5 -4 7 -10 4 -5 -3 -10 -2 -10 2 0 5 -7 18 -15
29 -15 19 -15 19 -8 -1 6 -17 4 -18 -9 -8 -8 7 -19 9 -24 5 -4 -4 -2 2 6 12
10 13 10 17 3 12 -7 -4 -13 -2 -13 3 0 6 -9 11 -19 11 -11 0 -21 5 -23 10 -2
6 -13 12 -25 12 -13 1 -19 7 -16 15 4 9 0 11 -11 7 -15 -6 -21 5 -17 29 1 5
-3 6 -9 2 -6 -3 -8 -10 -5 -15 3 -5 1 -12 -5 -15 -6 -4 -10 -3 -9 2 4 23 -2
35 -16 29 -8 -3 -14 0 -12 7 1 7 -6 11 -16 9 -10 -2 -16 3 -15 10 2 7 -3 12
-9 10 -7 -1 -13 3 -13 9 0 6 -9 8 -22 3 -21 -6 -22 -5 -8 11 8 11 10 16 3 12
-6 -4 -14 -3 -18 3 -4 6 -10 8 -15 5 -4 -3 -10 2 -14 10 -3 8 -13 15 -21 15
-9 0 -23 7 -32 16 -9 8 -22 13 -30 9 -11 -4 -13 -1 -9 10 3 10 2 13 -5 10 -5
-4 -16 -1 -24 5 -8 7 -22 10 -30 6 -9 -3 -14 -2 -11 2 2 4 1 14 -5 22 -7 13
-9 13 -9 0 -1 -11 -4 -10 -15 4 -11 14 -15 16 -15 5 0 -12 -2 -12 -10 1 -5 8
-15 15 -22 15 -7 1 -11 7 -10 15 2 8 1 12 -3 8 -11 -10 -66 13 -58 25 4 6 0 8
-10 4 -8 -3 -25 3 -37 13 -12 10 -27 17 -35 14 -7 -3 -15 2 -19 11 -3 10 -12
15 -21 11 -8 -3 -15 -1 -15 5 0 6 -4 8 -9 5 -5 -3 -12 1 -15 10 -3 9 -12 14
-19 11 -7 -3 -31 3 -52 13 -21 10 -45 15 -54 12 -8 -3 -12 -1 -8 5 8 13 -30
24 -61 18 -19 -3 -21 -1 -13 14 7 13 6 18 -4 18 -8 0 -11 -5 -8 -11 4 -7 1 -7
-8 1 -8 6 -25 13 -39 15 -14 1 -28 7 -31 11 -3 5 -12 9 -20 10 -24 4 -40 18
-33 30 5 8 3 8 -7 0 -17 -16 -43 -17 -33 -1 5 8 2 9 -10 5 -10 -4 -19 -1 -22
8 -9 21 -27 19 -20 -2 6 -17 5 -17 -8 0 -7 9 -20 17 -29 17 -8 0 -17 6 -20 13
-3 7 -19 12 -38 12 -19 -1 -39 2 -46 8 -7 5 -17 6 -22 3 -5 -4 -13 -1 -18 6
-10 15 -35 17 -45 3 -5 -6 -8 -5 -8 3 0 7 -4 11 -9 8 -5 -4 -11 -1 -13 6 -2 6
-24 13 -49 15 -79 7 -113 19 -102 36 4 6 1 7 -7 2 -20 -12 -59 -12 -57 0 1 5
-6 9 -17 7 -10 -2 -15 1 -12 6 3 6 -2 8 -13 5 -10 -3 -22 0 -25 6 -4 5 -14 7
-23 4 -11 -4 -14 -3 -9 5 5 8 2 10 -8 6 -9 -3 -13 -11 -9 -18 4 -6 -1 -4 -11
4 -11 8 -42 16 -74 17 -30 1 -58 7 -62 13 -6 9 -9 9 -12 -1 -4 -12 -9 -12 -32
1 -15 8 -38 15 -49 15 -12 0 -27 4 -34 8 -6 4 -15 2 -19 -4 -4 -8 -11 -4 -20
12 -7 13 -13 18 -14 11 0 -9 -11 -13 -33 -11 -18 2 -37 0 -44 -4 -6 -4 -16 -1
-22 7 -16 19 -69 12 -86 -10 -13 -18 -14 -17 -8 6 6 23 5 24 -12 10 -10 -8
-16 -10 -12 -4 4 8 -3 11 -23 10 -17 0 -30 -3 -30 -7 0 -9 -44 -5 -52 5 -4 6
-12 5 -21 -3 -12 -9 -16 -9 -20 1 -4 10 -6 10 -6 -1 -1 -11 -4 -11 -16 -1 -8
7 -15 8 -15 3 0 -5 -7 -10 -15 -10 -8 0 -15 5 -15 10 0 5 -8 3 -17 -4 -15 -12
-16 -12 -8 1 8 13 7 13 -8 1 -13 -10 -17 -10 -17 -1 0 10 -3 10 -15 0 -12 -10
-15 -10 -15 0 0 10 -3 10 -15 0 -12 -10 -15 -10 -15 0 0 10 -3 10 -15 0 -12
-10 -15 -10 -15 0 0 10 -3 10 -14 1 -11 -9 -15 -9 -19 1 -4 10 -6 10 -6 -1 -1
-11 -4 -11 -16 -1 -8 7 -15 8 -15 3 0 -5 -7 -10 -15 -10 -8 0 -15 5 -15 10 0
5 -8 3 -17 -4 -15 -12 -16 -12 -8 1 8 13 7 13 -8 1 -13 -10 -17 -10 -17 -1 0
10 -3 10 -15 0 -12 -10 -15 -10 -15 0 0 10 -3 10 -15 0 -12 -10 -15 -10 -15 0
0 10 -3 10 -15 0 -12 -10 -15 -10 -15 0 0 10 -3 10 -14 1 -11 -9 -15 -9 -19 1
-4 10 -6 10 -6 -1 -1 -11 -4 -11 -16 -1 -8 7 -15 8 -15 3 0 -5 -7 -10 -15 -10
-8 0 -15 5 -15 10 0 5 -8 3 -17 -4 -15 -12 -16 -12 -8 1 7 13 6 13 -7 2 -13
-10 -17 -10 -21 0 -4 10 -6 10 -6 -1 -1 -11 -4 -11 -16 -1 -8 7 -15 8 -15 3 0
-8 -23 -10 -49 -4 -2 1 2 8 9 16 7 8 11 15 9 16 -34 7 -37 6 -34 -11z m925
-35 c-5 -7 -9 -14 -7 -16 1 -2 0 -3 -2 -1 -11 7 -7 29 5 29 9 0 11 -4 4 -12z
m-3500 -959 c0 -3 -4 -8 -10 -11 -5 -3 -10 -1 -10 4 0 6 5 11 10 11 6 0 10 -2
10 -4z m-1620 -2000 c0 -2 -7 -7 -16 -10 -8 -3 -12 -2 -9 4 6 10 25 14 25 6z
m-273 -721 c0 -8 -4 -12 -9 -9 -5 3 -6 10 -3 15 9 13 12 11 12 -6z m9923 -625
c0 -5 -2 -10 -4 -10 -3 0 -8 5 -11 10 -3 6 -1 10 4 10 6 0 11 -4 11 -10z
m-10053 -1525 c0 -8 -4 -12 -9 -9 -5 3 -6 10 -3 15 9 13 12 11 12 -6z m273
-1029 c0 -3 -4 -8 -10 -11 -5 -3 -10 -1 -10 4 0 6 5 11 10 11 6 0 10 -2 10 -4z
m9490 -80 c0 -2 -8 -10 -17 -17 -16 -13 -17 -12 -4 4 13 16 21 21 21 13z
m-8775 -1204 c-3 -3 -11 0 -18 7 -9 10 -8 11 6 5 10 -3 15 -9 12 -12z m2122
-1628 c-3 -3 -12 -4 -19 -1 -8 3 -5 6 6 6 11 1 17 -2 13 -5z m348 -124 c-3 -5
-12 -10 -18 -10 -7 0 -6 4 3 10 19 12 23 12 15 0z m90 -40 c3 -6 -1 -7 -9 -4
-18 7 -21 14 -7 14 6 0 13 -4 16 -10z m2281 -152 c-9 -5 -23 -5 -32 0 -12 6
-7 9 16 9 23 0 28 -3 16 -9z"/>
<path d="M9085 10230 c-4 -6 -12 -7 -18 -3 -9 5 -9 3 0 -8 10 -12 8 -15 -7
-15 -10 0 -16 4 -14 8 3 4 -2 5 -10 2 -9 -3 -16 -10 -16 -15 0 -5 -3 -8 -7 -8
-20 3 -34 -2 -28 -11 4 -6 -1 -7 -11 -3 -12 4 -15 3 -10 -5 5 -8 1 -10 -10 -5
-10 4 -21 0 -28 -9 -6 -9 -20 -17 -31 -20 -11 -2 -19 -11 -19 -20 1 -10 -1
-17 -5 -16 -23 2 -44 -3 -35 -10 9 -5 8 -11 -2 -20 -11 -10 -14 -10 -14 0 0 7
-10 -2 -21 -19 -12 -18 -25 -31 -29 -28 -5 3 -7 -4 -5 -16 3 -15 1 -18 -8 -11
-8 7 -17 7 -28 -1 -16 -12 -19 -18 -19 -38 0 -6 -7 -8 -16 -5 -8 3 -12 2 -9
-3 3 -5 1 -12 -5 -16 -6 -4 -8 -11 -5 -16 6 -8 -9 -13 -28 -10 -5 1 -6 -3 -2
-9 3 -5 1 -10 -5 -10 -6 0 -8 -4 -5 -10 3 -5 1 -10 -5 -10 -6 0 -8 -5 -4 -12
5 -7 2 -9 -9 -5 -11 4 -14 2 -10 -9 3 -7 0 -14 -6 -14 -6 0 -11 -7 -11 -15 0
-8 -4 -15 -9 -15 -5 0 -11 -9 -14 -20 -3 -13 -1 -18 6 -13 7 4 6 -1 -2 -10 -7
-9 -17 -15 -21 -12 -9 6 -5 -39 6 -57 5 -9 1 -8 -11 2 -11 9 -16 10 -11 3 4
-7 2 -13 -4 -13 -8 0 -7 -6 1 -21 7 -13 7 -19 1 -15 -6 3 -13 2 -17 -4 -3 -5
-2 -10 3 -10 6 0 9 -11 8 -25 0 -14 -4 -25 -8 -25 -8 0 -3 -34 7 -50 4 -6 2
-16 -3 -23 -13 -15 -13 -29 0 -44 7 -9 7 -13 -2 -13 -10 0 -10 -3 0 -15 10
-12 10 -15 0 -15 -7 0 -2 -8 11 -18 17 -15 19 -21 9 -27 -9 -6 -11 -4 -5 5 6
9 4 11 -5 5 -10 -6 -9 -11 5 -22 11 -7 15 -13 11 -13 -5 0 -2 -8 5 -17 12 -14
12 -16 0 -9 -9 6 -12 5 -9 -5 3 -8 10 -13 16 -12 6 1 9 -9 7 -23 -1 -13 2 -27
8 -31 6 -4 7 -1 2 7 -5 9 -4 11 3 6 7 -4 12 -16 12 -27 0 -10 5 -19 10 -19 6
0 10 -5 10 -11 0 -5 11 -27 25 -47 14 -20 25 -33 25 -28 0 5 11 -1 25 -14 14
-13 25 -29 25 -37 0 -7 5 -13 11 -13 5 0 8 -4 5 -9 -3 -4 4 -8 16 -7 12 0 23
-6 25 -14 4 -13 3 -13 -6 0 -8 11 -11 12 -11 2 0 -8 9 -16 20 -19 11 -3 20
-11 20 -17 0 -22 48 -59 66 -52 14 5 15 4 4 -9 -9 -11 -9 -15 -1 -15 7 0 9 -5
5 -11 -4 -7 -1 -10 7 -7 8 3 20 -1 27 -9 8 -7 18 -10 24 -7 7 4 8 2 4 -5 -4
-6 -13 -8 -19 -4 -7 4 -6 0 2 -10 7 -9 17 -14 22 -11 5 3 9 -1 9 -9 0 -16 47
-61 75 -71 16 -6 17 -9 5 -17 -12 -8 -10 -10 8 -6 20 5 22 3 10 -11 -10 -12
-10 -14 0 -8 6 4 12 2 12 -3 0 -6 9 -11 20 -11 13 0 20 -7 20 -19 0 -10 8 -25
18 -32 15 -13 16 -12 3 4 -12 15 -12 17 3 11 9 -3 16 -13 16 -21 0 -10 7 -13
23 -9 12 3 16 3 10 0 -10 -4 -10 -9 1 -19 8 -8 20 -16 27 -17 8 -2 20 -11 27
-21 12 -15 17 -16 30 -5 10 7 14 9 10 4 -11 -14 15 -35 29 -24 9 7 15 6 19 -6
3 -9 10 -13 15 -10 5 3 9 -1 9 -8 0 -9 3 -9 10 2 5 8 10 10 10 4 0 -10 13 -14
55 -15 11 0 23 -5 26 -11 8 -13 99 -18 99 -5 0 4 10 2 23 -4 21 -12 21 -11 7
7 -8 10 -10 16 -6 12 5 -4 15 -3 23 4 11 9 12 7 6 -8 -6 -16 -4 -17 8 -7 8 7
24 12 34 13 58 1 75 5 75 18 0 7 4 11 9 8 13 -8 42 4 36 15 -3 4 4 6 15 4 13
-3 18 0 14 7 -5 7 -1 9 9 5 12 -4 17 -1 18 11 0 11 2 13 6 4 4 -10 9 -9 20 5
8 10 11 12 7 4 -5 -10 -3 -12 5 -7 7 5 10 14 7 21 -3 9 2 12 14 10 13 -3 18 1
15 14 -2 14 2 17 21 15 13 -1 21 2 18 7 -3 6 7 22 22 37 15 15 24 21 19 13 -5
-10 -4 -12 3 -7 7 4 12 14 12 22 0 9 5 12 12 8 8 -5 9 -2 5 9 -3 9 -3 16 1 16
20 -3 32 3 32 16 0 8 6 14 13 13 6 -2 11 5 9 14 -2 11 2 16 10 13 14 -6 72 60
64 73 -2 4 0 14 6 22 8 12 9 12 4 -2 -3 -12 -1 -15 10 -11 8 3 13 12 10 19 -3
8 0 14 6 14 7 0 6 6 -2 16 -8 8 -9 14 -4 13 19 -3 34 1 34 11 0 5 -8 6 -17 3
-17 -7 -17 -6 -1 11 10 9 23 14 29 10 7 -4 9 -3 6 2 -3 6 -2 16 3 24 5 9 5 19
-2 27 -7 9 -7 13 1 13 8 0 10 8 6 21 -5 16 -4 19 6 14 9 -6 11 -4 6 7 -3 9 -3
19 0 22 4 3 7 52 7 109 1 91 -1 103 -19 115 -19 13 -19 13 -1 7 20 -6 20 -6 0
16 -10 12 -13 19 -6 15 6 -4 12 -2 12 3 0 6 -4 11 -10 11 -5 0 -6 8 -3 18 6
15 5 16 -12 2 -17 -14 -18 -14 -7 7 16 29 15 33 -5 33 -15 0 -16 2 -3 10 13 8
12 10 -2 10 -13 0 -18 8 -18 26 0 17 -6 28 -20 31 -11 3 -17 9 -14 14 3 5 11
6 17 2 7 -4 6 0 -2 10 -15 19 -26 23 -15 5 5 -7 3 -8 -5 -4 -7 5 -10 15 -6 24
3 9 3 14 0 11 -7 -8 -75 56 -75 71 0 7 -9 9 -22 6 -13 -3 -17 -3 -10 0 6 3 12
10 12 15 0 6 -4 7 -10 4 -5 -3 -10 1 -10 9 0 9 -9 16 -20 16 -11 0 -20 5 -20
11 0 5 5 7 12 3 7 -5 8 -3 4 5 -5 7 -11 10 -14 7 -8 -9 -42 25 -42 41 0 12
-18 18 -45 14 -5 -1 -1 6 9 14 15 11 16 15 5 15 -8 0 -24 7 -35 16 -10 8 -13
13 -6 9 17 -9 15 0 -5 16 -9 8 -14 9 -11 4 4 -6 2 -17 -4 -25 -8 -13 -9 -13
-5 0 8 25 -11 63 -29 56 -8 -3 -12 -2 -9 4 3 6 -2 10 -12 10 -14 0 -15 2 -5 9
11 7 10 10 -3 15 -9 3 -21 4 -26 1 -5 -4 -6 2 -2 11 5 13 3 15 -8 9 -11 -7
-11 -5 1 10 8 10 10 16 3 12 -6 -4 -13 -2 -15 3 -2 6 -13 12 -24 12 -15 2 -20
7 -16 20 3 13 -1 18 -18 18 -15 0 -20 4 -17 15 7 17 -9 30 -18 15 -10 -16 -25
-2 -25 23 0 18 -2 19 -10 7 -8 -13 -10 -12 -10 4 0 13 -5 17 -20 13 -11 -3
-17 -1 -14 4 10 17 -17 41 -31 29 -9 -8 -17 -6 -28 4 -8 8 -17 12 -21 9 -3 -4
-6 -1 -6 7 0 10 -3 10 -16 0 -12 -11 -15 -11 -12 1 2 8 -3 13 -9 12 -7 -2 -13
2 -13 8 0 8 -5 8 -15 -1 -12 -10 -15 -9 -16 6 0 11 -3 14 -5 7 -3 -7 -15 -9
-32 -4 -48 12 -209 6 -228 -10 -16 -12 -17 -12 -11 4 7 19 2 23 -8 7z m-175
-104 c0 -3 -4 -8 -10 -11 -5 -3 -10 -1 -10 4 0 6 5 11 10 11 6 0 10 -2 10 -4z
m-167 -141 c-3 -9 -8 -14 -10 -11 -3 3 -2 9 2 15 9 16 15 13 8 -4z m1452 -925
c-3 -5 -12 -10 -18 -10 -7 0 -6 4 3 10 19 12 23 12 15 0z m-1351 -99 c-2 -3
-12 3 -22 13 -16 17 -16 18 5 5 12 -7 20 -15 17 -18z m1266 -55 c0 -2 -6 -9
-14 -15 -11 -9 -16 -9 -22 0 -4 7 -3 9 4 5 6 -3 13 -2 17 4 6 10 15 14 15 6z
m-1130 -81 c13 -14 21 -25 18 -25 -2 0 -15 11 -28 25 -13 14 -21 25 -18 25 2
0 15 -11 28 -25z m710 -247 c0 -4 -4 -8 -9 -8 -6 0 -12 4 -15 8 -3 5 1 9 9 9
8 0 15 -4 15 -9z m-216 -36 c2 -4 -4 -8 -14 -8 -10 0 -16 4 -14 8 3 4 9 8 14
8 5 0 11 -4 14 -8z"/>
<path d="M5910 10170 c0 -5 5 -10 11 -10 5 0 7 5 4 10 -3 6 -8 10 -11 10 -2 0
-4 -4 -4 -10z"/>
<path d="M4020 10109 c0 -5 5 -7 10 -4 6 3 10 8 10 11 0 2 -4 4 -10 4 -5 0
-10 -5 -10 -11z"/>
<path d="M6295 10090 c3 -5 8 -10 11 -10 2 0 4 5 4 10 0 6 -5 10 -11 10 -5 0
-7 -4 -4 -10z"/>
<path d="M8503 9525 c0 -8 4 -12 9 -9 5 3 6 10 3 15 -9 13 -12 11 -12 -6z"/>
<path d="M1686 9313 c-6 -14 -5 -15 5 -6 7 7 10 15 7 18 -3 3 -9 -2 -12 -12z"/>
<path d="M8676 9107 c3 -10 9 -15 12 -12 3 3 0 11 -7 18 -10 9 -11 8 -5 -6z"/>
<path d="M1877 9063 c-4 -3 -7 -11 -7 -17 0 -6 5 -5 12 2 6 6 9 14 7 17 -3 3
-9 2 -12 -2z"/>
<path d="M53 4505 c0 -8 4 -12 9 -9 5 3 6 10 3 15 -9 13 -12 11 -12 -6z"/>
<path d="M9941 3444 c0 -11 3 -14 6 -6 3 7 2 16 -1 19 -3 4 -6 -2 -5 -13z"/>
<path d="M1770 1296 c0 -2 8 -10 18 -17 15 -13 16 -12 3 4 -13 16 -21 21 -21
13z"/>
<path d="M2423 805 c0 -8 4 -12 9 -9 5 3 6 10 3 15 -9 13 -12 11 -12 -6z"/>
<path d="M2940 520 c0 -5 5 -10 11 -10 5 0 7 5 4 10 -3 6 -8 10 -11 10 -2 0
-4 -4 -4 -10z"/>
<path d="M4163 123 c-7 -3 -13 -9 -13 -15 0 -7 5 -6 14 1 11 9 15 9 19 -1 4
-9 6 -9 6 -1 1 15 -10 22 -26 16z"/>
</g>
</svg>
